<?xml version="1.0" encoding="utf-8"?>
<!-- Generator: Adobe Illustrator 22.1.0, SVG Export Plug-In . SVG Version: 6.00 Build 0)  -->
<svg version="1.1" id="Layer_1" xmlns="http://www.w3.org/2000/svg" xmlns:xlink="http://www.w3.org/1999/xlink" x="0px" y="0px"
	 viewBox="0 0 512 512" style="enable-background:new 0 0 512 512;" xml:space="preserve">
<style type="text/css">
	.st0{fill:#ce4a50;}
	.st1{fill:#f5f5f5;}
</style>
<circle class="st0" cx="256" cy="256" r="256"/>
<path class="st0" d="M256,0c-11.3,0-22.5,0.7-33.4,2.2C348.2,18.5,445.2,125.9,445.2,256s-97,237.5-222.6,253.8
	c10.9,1.4,22.1,2.2,33.4,2.2c141.4,0,256-114.6,256-256S397.4,0,256,0z"/>
<path class="st1" d="M256,47.3C140.9,47.3,47.3,140.9,47.3,256S140.9,464.7,256,464.7S464.7,371.1,464.7,256S371.1,47.3,256,47.3z
	 M377.9,183.5l41.5-28.1c13.3,21.5,22.4,45.7,26.4,71.7l-49.9,5.4C393,214.8,386.8,198.3,377.9,183.5z M134.1,328.5l-41.5,28.1
	C79.3,335.2,70.1,311,66.2,285l49.9-5.4C119,297.2,125.2,313.7,134.1,328.5z M148.3,192.2l41.4,28.4c-5.6,10.5-8.9,22.6-8.9,35.3
	c0,11.6,2.6,22.6,7.4,32.4L145.6,315c-9.4-17.6-14.8-37.7-14.8-59C130.8,232.7,137.2,210.9,148.3,192.2z M256,314.4
	c-32.2,0-58.4-26.2-58.4-58.4s26.2-58.4,58.4-58.4s58.4,26.2,58.4,58.4S288.2,314.4,256,314.4z M264.3,181.3v-50.3
	c36.4,2.4,68.6,20.4,89.9,47.4l-41.5,28.4C300.7,193,283.6,183.5,264.3,181.3z M264.3,114.3V64.2c26.4,1.1,51.5,7.6,74.1,18.4
	L315,126.9C299.4,119.8,282.3,115.4,264.3,114.3z M247.7,114.3c-23.2,1.4-44.9,8.3-63.9,19.5l-28-41.6c27-16.6,58.3-26.7,91.9-28.1
	L247.7,114.3L247.7,114.3z M247.7,131.1v50.3c-19.3,2.1-36.4,11.6-48.5,25.6l-41.5-28.4C179.1,151.5,211.3,133.5,247.7,131.1z
	 M197.1,302.6c12.1,15.3,30.1,25.8,50.5,28.1v50.3c-38.3-2.5-72-22.4-93.2-51.8L197.1,302.6z M247.7,397.7v50.1
	c-26.4-1.1-51.5-7.6-74.1-18.4l23.5-44.3C212.6,392.2,229.7,396.6,247.7,397.7z M264.3,397.7c23.2-1.4,44.9-8.3,63.9-19.5l28,41.6
	c-27,16.6-58.3,26.7-91.9,28.1L264.3,397.7L264.3,397.7z M264.3,380.9v-50.3c20.4-2.3,38.4-12.8,50.5-28.1l42.7,26.6
	C336.3,358.6,302.7,378.4,264.3,380.9z M366.4,315l-42.6-26.6c4.7-9.8,7.4-20.8,7.4-32.4c0-12.8-3.2-24.8-8.9-35.3l41.4-28.4
	c11.1,18.7,17.5,40.5,17.5,63.8C381.2,277.3,375.9,297.4,366.4,315z M410,141.5l-41.5,28.1c-10.7-13.9-23.8-25.7-38.8-34.9
	l23.5-44.3C375.4,103.6,394.7,121,410,141.5z M141.9,101.7l28,41.6c-14.9,11.4-27.6,25.7-37,42.1L88.1,163
	C101.5,138.9,119.9,118,141.9,101.7z M80.6,177.9l44.9,22.4c-7.3,17.1-11.4,36-11.4,55.7c0,2.3,0.1,4.7,0.2,7l-49.8,5.4
	c-0.3-4.1-0.4-8.2-0.4-12.4C64,228.2,69.9,201.8,80.6,177.9z M102,370.5l41.5-28.1c10.7,13.9,23.8,25.7,38.8,34.9l-23.5,44.3
	C136.6,408.4,117.3,391,102,370.5z M370.1,410.3l-28-41.6c14.9-11.4,27.6-25.7,37-42.1l44.9,22.4C410.5,373.1,392.1,394,370.1,410.3
	z M431.4,334.1l-44.9-22.4c7.3-17.1,11.4-36,11.4-55.7c0-2.3-0.1-4.7-0.2-7l49.9-5.4c0.3,4.1,0.4,8.2,0.4,12.4
	C448,283.8,442.1,310.2,431.4,334.1z"/>
</svg>
